# xmcd
#
# Track frame offsets:
#	150
#	12021
#	26697
#	41395
#	56432
#	69431
#	84242
#	101777
#	113198
#	124766
#	137372
#	147447
#	163072
#	179896
#	206222
#	217604
#	234699
#	248121
#	260401
#	273298
#	284371
#	295741
#	309020
#	326220
#
# Disc length: 4490 seconds
#
# Revision: 0
# Processed by: cddbd v1.5.2PL0 Copyright (c) Steve Scherf et al.
# Submitted via: audiograbber 1.83.01
#
DISCID=5d118818
DTITLE=Jerry Lee Lewis - A Whole Lotta Jerry Lee Lewis CD4
DYEAR=2012
DGENRE=Country
TTITLE0=Don't Boogie Woogie
TTITLE1=I Can't Keep My Hands Off You
TTITLE2=I Don't Want To Be Lonely Tonight
TTITLE3=Let's Put It Back Together Again
TTITLE4=Jerry Lee's Rock 'N' Roll Revival Show
TTITLE5=The Closest Thing To You
TTITLE6=Middle Age Crazy
TTITLE7=Tennessee Saturday Night
TTITLE8=Come On In
TTITLE9=I'll Find It Where I Can
TTITLE10=I Hate You
TTITLE11=Rockin' My Life Away
TTITLE12=I Wish I Was Eighteen Again
TTITLE13=Who Will The Next Fool Be
TTITLE14=When Two Worlds Collide
TTITLE15=Over The Rainbow
TTITLE16=Thirty-Nine And Holding
TTITLE17=I'm So Lonesome I Could Cry
TTITLE18=My Fingers Do The Talkin'
TTITLE19=Come As You Were
TTITLE20=Honky Tonk Rock 'N' Roll Piano Man
TTITLE21=Why You Been Gone So Long
TTITLE22=Sixteen Candles
TTITLE23=Wild One
EXTD=
EXTT0=
EXTT1=
EXTT2=
EXTT3=
EXTT4=
EXTT5=
EXTT6=
EXTT7=
EXTT8=
EXTT9=
EXTT10=
EXTT11=
EXTT12=
EXTT13=
EXTT14=
EXTT15=
EXTT16=
EXTT17=
EXTT18=
EXTT19=
EXTT20=
EXTT21=
EXTT22=
EXTT23=
PLAYORDER=
